<svg xmlns="http://www.w3.org/2000/svg"
     width="36"
     height="36"
     viewBox="0 0 24 24">

  <defs>
    <linearGradient id="githubGradient"
                    x1="0%"
                    y1="100%"
                    x2="100%"
                    y2="0%">
      <stop offset="0%" stop-color="#6e5494"/>
      <stop offset="100%" stop-color="#4078c0"/>
    </linearGradient>
  </defs>

  <circle cx="12"
          cy="12"
          r="11"
          fill="url(#githubGradient)"/>

  <path fill="white"
        d="M12 .5C5.65.5.5 5.65.5 12
        c0 5.08 3.29 9.38 7.86 10.9
        c.57.1.78-.25.78-.55
        c0-.27-.01-1.17-.02-2.12
        c-3.2.69-3.88-1.36-3.88-1.36
        c-.52-1.33-1.28-1.68-1.28-1.68
        c-1.05-.72.08-.71.08-.71
        c1.16.08 1.77 1.19 1.77 1.19
        c1.03 1.76 2.69 1.25 3.34.96
        c.1-.75.4-1.25.72-1.54
        c-2.55-.29-5.23-1.28-5.23-5.68
        c0-1.25.45-2.27 1.18-3.07
        c-.12-.29-.51-1.46.11-3.05
        c0 0 .96-.31 3.15 1.17
        a9.96 9.96 0 0 1 5.72 0
        c2.19-1.48 3.15-1.17 3.15-1.17
        c.62 1.59.23 2.76.11 3.05
        c.73.8 1.18 1.82 1.18 3.07
        c0 4.41-2.68 5.39-5.24 5.67
        c.42.36.79 1.06.79 2.14
        c0 1.54-.01 2.78-.01 3.16
        c0 .3.2.66.79.55
        C20.21 21.38 23.5 17.08 23.5 12
        C23.5 5.65 18.35.5 12 .5z"/>
</svg>